<svg xmlns="http://www.w3.org/2000/svg" viewBox="0 0 800 400">
    <!-- MTU Structure -->
    <g transform="translate(50, 40)">
        <!-- Headers and Payload -->
        <rect x="0" y="0" width="100" height="60" fill="#FF9966" stroke="#333"/>
        <rect x="100" y="0" width="120" height="60" fill="#99CC99" stroke="#333"/>
        <rect x="220" y="0" width="120" height="60" fill="#9999CC" stroke="#333"/>
        <rect x="340" y="0" width="300" height="60" fill="#FFCC99" stroke="#333"/>

        <!-- Header Labels -->
        <text x="50" y="35" text-anchor="middle" font-size="12">Ethernet
14 byte</text>
        <text x="160" y="35" text-anchor="middle" font-size="12">IP 
20 byte</text>
        <text x="280" y="35" text-anchor="middle" font-size="12">TCP
20 byte</text>
        <text x="490" y="35" text-anchor="middle" font-size="12">Payload Data
1460 byte</text>

        <!-- MTU Line -->
        <line x1="0" y1="100" x2="640" y2="100" stroke="#333" stroke-width="2"/>
        <text x="320" y="95" text-anchor="middle" font-size="14" font-weight="bold">MTU = 1500 bytes</text>

        <!-- Fragmentation Example -->
        <text x="0" y="150" font-size="14" font-weight="bold">When data exceeds MTU:</text>
        
        <!-- Original Large Packet -->
        <rect x="0" y="170" width="700" height="40" fill="#FFE4B5" stroke="#333"/>
        <text x="350" y="195" text-anchor="middle">Original Large Packet (> 1500 bytes)</text>

        <!-- Arrows -->
        <path d="M350,220 L350,250" stroke="#333" stroke-width="2" marker-end="url(#arrowhead)"/>
        
        <!-- Fragmented Packets -->
        <rect x="0" y="260" width="200" height="40" fill="#FFE4B5" stroke="#333"/>
        <rect x="250" y="260" width="200" height="40" fill="#FFE4B5" stroke="#333"/>
        <rect x="500" y="260" width="200" height="40" fill="#FFE4B5" stroke="#333"/>
        
        <text x="100" y="285" text-anchor="middle">Fragment 1</text>
        <text x="350" y="285" text-anchor="middle">Fragment 2</text>
        <text x="600" y="285" text-anchor="middle">Fragment 3</text>
    </g>

    <!-- Arrow definition -->
    <defs>
        <marker id="arrowhead" markerWidth="10" markerHeight="7" refX="9" refY="3.5" orient="auto">
            <polygon points="0 0, 10 3.5, 0 7" fill="#333"/>
        </marker>
    </defs>
</svg>
